<?xml version="1.0" encoding="UTF-8"?> <svg xmlns="http://www.w3.org/2000/svg" width="203" height="202" viewBox="0 0 203 202" fill="none"><path d="M81.3198 161.61V20.2601C81.3198 9.11007 90.3599 0.0700684 101.51 0.0700684C112.66 0.0700684 121.7 9.11007 121.7 20.2601V202L81.3198 161.61Z" fill="white"></path><path d="M202.49 40.4501V181.8C202.49 192.95 193.45 201.99 182.3 201.99C171.15 201.99 162.11 192.95 162.11 181.8V0.0600586L202.49 40.4501Z" fill="white"></path><path d="M141.92 201.99C153.071 201.99 162.11 192.951 162.11 181.8C162.11 170.649 153.071 161.61 141.92 161.61C130.769 161.61 121.73 170.649 121.73 181.8C121.73 192.951 130.769 201.99 141.92 201.99Z" fill="white"></path><path d="M141.92 40.4501C153.071 40.4501 162.11 31.4107 162.11 20.2601C162.11 9.10944 153.071 0.0700684 141.92 0.0700684C130.769 0.0700684 121.73 9.10944 121.73 20.2601C121.73 31.4107 130.769 40.4501 141.92 40.4501Z" fill="white"></path><path d="M0.569824 202H40.9498V20.1401L20.7499 0.0700684L0.569824 20.1401V202Z" fill="white"></path><path d="M81.3397 121.12H40.9497V80.74L81.3397 121.12Z" fill="white"></path></svg> 