<?xml version="1.0" encoding="UTF-8"?> <svg xmlns="http://www.w3.org/2000/svg" width="733" height="793" viewBox="0 0 733 793" fill="none"><path d="M354.35 448.24C351.66 448.24 348.98 447.22 346.93 445.17C342.83 441.07 342.82 434.42 346.93 430.32L429.76 347.38C433.86 343.28 440.51 343.27 444.61 347.38C448.71 351.48 448.72 358.13 444.61 362.23L361.78 445.17C359.73 447.22 357.04 448.25 354.35 448.25V448.24Z" fill="black"></path><path d="M295.71 448.26C293.02 448.26 290.34 447.24 288.29 445.19C284.19 441.09 284.18 434.44 288.29 430.34L353.24 365.3H311.4C305.6 365.3 300.9 360.6 300.9 354.8C300.9 349 305.6 344.3 311.4 344.3H378.57C382.82 344.3 386.64 346.86 388.27 350.78C389.9 354.7 389 359.22 386 362.22L303.15 445.18C301.1 447.23 298.41 448.26 295.72 448.26H295.71Z" fill="black"></path><path d="M483.27 319.33C480.58 319.33 477.9 318.31 475.85 316.26C471.75 312.16 471.75 305.51 475.85 301.41L714.97 62.1902C719.07 58.0902 725.72 58.0902 729.82 62.1902C733.92 66.2902 733.92 72.9402 729.82 77.0402L490.7 316.26C488.65 318.31 485.96 319.34 483.27 319.34V319.33Z" fill="black"></path><path d="M424.62 319.35C421.93 319.35 419.25 318.33 417.2 316.28C413.1 312.18 413.1 305.53 417.2 301.43L714.97 3.5501C719.07 -0.549902 725.72 -0.549902 729.82 3.5501C733.92 7.6501 733.92 14.3001 729.82 18.4001L432.05 316.28C430 318.33 427.31 319.36 424.62 319.36V319.35Z" fill="black"></path><path d="M10.4999 792.07C7.80988 792.07 5.12988 791.05 3.07988 789C-1.02012 784.9 -1.02012 778.25 3.07988 774.15L303.97 473.17C308.07 469.07 314.72 469.07 318.82 473.17C322.92 477.27 322.92 483.92 318.82 488.02L17.9299 788.99C15.8799 791.04 13.1899 792.07 10.4999 792.07Z" fill="black"></path><path d="M10.4999 733.43C7.80988 733.43 5.12988 732.41 3.07988 730.36C-1.02012 726.26 -1.02012 719.61 3.07988 715.51L245.35 473.17C249.45 469.07 256.1 469.07 260.2 473.17C264.3 477.27 264.3 483.92 260.2 488.02L17.9299 730.35C15.8799 732.4 13.1899 733.43 10.4999 733.43Z" fill="black"></path></svg> 