<?xml version="1.0" encoding="UTF-8"?> <svg xmlns="http://www.w3.org/2000/svg" width="32" height="287" viewBox="0 0 32 287" fill="none"> <path d="M17.555 287L15.2697 285.664C14.445 285.182 13.6718 284.725 12.512 273.876C11.8247 267.509 11.0772 258.021 10.2782 245.673C8.92943 224.717 7.44315 195.532 5.86237 158.927C3.25925 98.7043 1.1716 36.3441 0.587405 18.6709L0.544434 16.0514C0.544434 7.4862 7.46892 0.541016 15.9828 0.541016H17.5034L17.5464 2.21269V3.73788H16.0257C9.23012 3.73788 3.73178 9.24405 3.73178 16.0169L3.77472 18.5933C4.35033 36.2407 6.44659 98.5922 9.04971 158.798C10.6305 195.385 12.1081 224.545 13.457 245.475C14.2474 257.771 14.9948 267.216 15.6735 273.54C16.4811 281.123 17.0567 282.855 17.2113 283.208L17.5464 283.562V287.008L17.555 287Z" fill="#989F9E"></path> <path d="M10.433 20.558L11.378 35.491L11.5756 38.5241L12.6839 55.8957V55.9905C12.6839 57.7139 14.1787 59.1098 16.0173 59.1098H16.0516V62.1515H16.0173C12.5292 62.1515 9.68556 59.42 9.65979 56.0508L8.57729 38.9636L8.37971 35.9046L7.41748 20.6958V20.601C7.41748 18.2142 9.35051 16.2754 11.7303 16.2754H16.0516V19.3085H11.7303C11.0344 19.3085 10.4588 19.8686 10.4416 20.558H10.433Z" fill="#989F9E"></path> <path d="M16.0258 285.871C15.768 285.871 15.5017 285.802 15.2698 285.673C14.7972 285.406 14.5051 284.897 14.5051 284.355V284.165C14.5051 283.82 14.6168 283.493 14.8316 283.226C14.9776 282.916 15.5533 281.278 16.378 273.549C17.0567 267.207 17.8041 257.763 18.5945 245.484C19.9433 224.562 21.4296 195.403 23.0018 158.807C25.6049 98.6009 27.6926 36.2493 28.2768 18.5761L28.3197 16.0255C28.3197 9.25266 22.8214 3.74649 16.0601 3.74649C15.2182 3.74649 14.5051 3.06577 14.5051 2.22131V2.0662C14.5051 1.22175 15.1838 0.541016 16.0258 0.541016C24.5826 0.541016 31.5071 7.4862 31.5071 16.0255L31.4641 18.645C30.8799 36.3441 28.7922 98.7043 26.1891 158.927C24.6083 195.541 23.1221 224.734 21.7733 245.673C20.9829 258.004 20.2269 267.491 19.5396 273.876C18.3798 284.725 17.6066 285.182 16.7818 285.664C16.5413 285.802 16.2835 285.871 16.0172 285.871H16.0258Z" fill="#989F9E"></path> <path d="M21.6272 20.558L20.6821 35.491L20.4846 38.5241L19.3763 55.8957V55.9905C19.3763 57.7139 17.8814 59.1098 16.0429 59.1098H16.0085V62.1515H16.0429C19.5309 62.1515 22.3746 59.42 22.4004 56.0508L23.4829 38.9636L23.6805 35.9046L24.6427 20.6958V20.601C24.6427 18.2142 22.7097 16.2754 20.3299 16.2754H16.0085V19.3085H20.3299C21.0258 19.3085 21.6014 19.8686 21.6186 20.558H21.6272Z" fill="#989F9E"></path> </svg> 