<?xml version="1.0" encoding="UTF-8"?> <svg xmlns="http://www.w3.org/2000/svg" width="1513" height="163" viewBox="0 0 1513 163" fill="none"> <path d="M673.73 134.743C644.28 134.743 620.326 110.918 620.326 81.6273C620.326 52.3367 644.28 28.5119 673.73 28.5119C703.18 28.5119 727.135 52.3367 727.135 81.6273C727.135 110.918 703.18 134.743 673.73 134.743ZM673.73 28.9462C644.521 28.9462 620.762 52.5763 620.762 81.6273C620.762 110.678 644.521 134.308 673.73 134.308C702.939 134.308 726.698 110.678 726.698 81.6273C726.698 52.5763 702.939 28.9462 673.73 28.9462Z" fill="black"></path> <path d="M673.73 144.431C639.026 144.431 610.795 116.354 610.795 81.837C610.795 47.3202 639.026 19.2426 673.73 19.2426C708.435 19.2426 736.665 47.3202 736.665 81.837C736.665 116.354 708.435 144.431 673.73 144.431ZM673.73 19.6618C639.267 19.6618 611.217 47.5448 611.217 81.837C611.217 116.129 639.252 144.012 673.73 144.012C708.209 144.012 736.244 116.129 736.244 81.837C736.244 47.5448 708.209 19.6618 673.73 19.6618Z" fill="black"></path> <path d="M673.73 153.521C633.801 153.521 601.31 121.206 601.31 81.4925C601.31 41.7795 633.801 9.46405 673.73 9.46405C713.66 9.46405 746.151 41.7795 746.151 81.4925C746.151 121.206 713.66 153.521 673.73 153.521ZM673.73 9.89832C634.042 9.89832 601.747 42.0191 601.747 81.4925C601.747 120.966 634.042 153.087 673.73 153.087C713.419 153.087 745.714 120.966 745.714 81.4925C745.714 42.0191 713.419 9.89832 673.73 9.89832Z" fill="black"></path> <path d="M674.046 163C629.037 163 592.426 126.588 592.426 81.8217C592.426 37.0558 629.052 0.628479 674.046 0.628479C719.041 0.628479 755.666 37.0409 755.666 81.8068C755.666 126.573 719.056 162.985 674.046 162.985V163ZM674.046 1.06107C629.277 1.06107 592.846 37.2945 592.846 81.8217C592.846 126.349 629.277 162.582 674.046 162.582C718.816 162.582 755.246 126.349 755.246 81.8217C755.246 37.2945 718.831 1.04615 674.046 1.04615V1.06107Z" fill="black"></path> <path d="M585.425 134.743C555.975 134.743 532.021 110.918 532.021 81.6273C532.021 52.3367 555.975 28.5119 585.425 28.5119C614.875 28.5119 638.83 52.3367 638.83 81.6273C638.83 110.918 614.875 134.743 585.425 134.743ZM585.425 28.9462C556.216 28.9462 532.458 52.5763 532.458 81.6273C532.458 110.678 556.216 134.308 585.425 134.308C614.635 134.308 638.393 110.678 638.393 81.6273C638.393 52.5763 614.635 28.9462 585.425 28.9462Z" fill="black"></path> <path d="M585.426 144.431C550.721 144.431 522.491 116.354 522.491 81.837C522.491 47.3202 550.721 19.2426 585.426 19.2426C620.13 19.2426 648.361 47.3202 648.361 81.837C648.361 116.354 620.13 144.431 585.426 144.431ZM585.426 19.6618C550.962 19.6618 522.912 47.5448 522.912 81.837C522.912 116.129 550.947 144.012 585.426 144.012C619.904 144.012 647.939 116.129 647.939 81.837C647.939 47.5448 619.904 19.6618 585.426 19.6618Z" fill="black"></path> <path d="M585.425 153.521C545.496 153.521 513.005 121.206 513.005 81.4925C513.005 41.7795 545.496 9.46405 585.425 9.46405C625.354 9.46405 657.846 41.7795 657.846 81.4925C657.846 121.206 625.354 153.521 585.425 153.521ZM585.425 9.89832C545.737 9.89832 513.442 42.0191 513.442 81.4925C513.442 120.966 545.737 153.087 585.425 153.087C625.114 153.087 657.409 120.966 657.409 81.4925C657.409 42.0191 625.114 9.89832 585.425 9.89832Z" fill="black"></path> <path d="M585.426 163C540.242 163 503.49 126.447 503.49 81.5075C503.49 36.5683 540.242 0 585.426 0C630.609 0 667.362 36.5533 667.362 81.4925C667.362 126.432 630.609 162.985 585.426 162.985V163ZM585.426 0.434267C540.483 0.434267 503.911 36.8079 503.911 81.5075C503.911 126.207 540.483 162.581 585.426 162.581C630.369 162.581 666.94 126.207 666.94 81.5075C666.94 36.8079 630.369 0.419293 585.426 0.419293V0.434267Z" fill="black"></path> <path d="M864.703 134.743C835.253 134.743 811.299 110.918 811.299 81.6273C811.299 52.3367 835.253 28.5119 864.703 28.5119C894.153 28.5119 918.108 52.3367 918.108 81.6273C918.108 110.918 894.153 134.743 864.703 134.743ZM864.703 28.9462C835.494 28.9462 811.735 52.5763 811.735 81.6273C811.735 110.678 835.494 134.308 864.703 134.308C893.912 134.308 917.671 110.678 917.671 81.6273C917.671 52.5763 893.912 28.9462 864.703 28.9462Z" fill="black"></path> <path d="M956.17 65.185C946.007 65.185 937.741 56.9639 937.741 46.8559C937.741 36.748 946.007 28.5269 956.17 28.5269C966.333 28.5269 974.599 36.748 974.599 46.8559C974.599 56.9639 966.333 65.185 956.17 65.185ZM956.17 28.9461C946.248 28.9461 938.163 36.9726 938.163 46.8559C938.163 56.7393 946.233 64.7657 956.17 64.7657C966.107 64.7657 974.177 56.7393 974.177 46.8559C974.177 36.9726 966.107 28.9461 956.17 28.9461Z" fill="black"></path> <path d="M956.17 74.4694C940.858 74.4694 928.406 62.0853 928.406 46.856C928.406 31.6267 940.858 19.2426 956.17 19.2426C971.482 19.2426 983.934 31.6267 983.934 46.856C983.934 62.0853 971.482 74.4694 956.17 74.4694ZM956.17 19.6618C941.099 19.6618 928.828 31.8663 928.828 46.856C928.828 61.8457 941.099 74.0501 956.17 74.0501C971.241 74.0501 983.512 61.8457 983.512 46.856C983.512 31.8663 971.241 19.6618 956.17 19.6618Z" fill="black"></path> <path d="M955.026 82.3311C934.835 82.3311 918.394 65.9937 918.394 45.8976C918.394 25.8015 934.82 9.46405 955.026 9.46405C975.231 9.46405 991.658 25.8015 991.658 45.8976C991.658 65.9937 975.231 82.3311 955.026 82.3311ZM955.026 9.89832C935.061 9.89832 918.831 26.0561 918.831 45.8976C918.831 65.7391 935.076 81.8968 955.026 81.8968C974.975 81.8968 991.221 65.7391 991.221 45.8976C991.221 26.0561 974.975 9.89832 955.026 9.89832Z" fill="black"></path> <path d="M955.026 92.7236C929.385 92.7236 908.532 71.9836 908.532 46.4816C908.532 20.9796 929.385 0.239624 955.026 0.239624C980.667 0.239624 1001.52 20.9796 1001.52 46.4816C1001.52 71.9836 980.667 92.7236 955.026 92.7236ZM955.026 0.658917C929.626 0.658917 908.954 21.2192 908.954 46.4816C908.954 71.744 929.626 92.3043 955.026 92.3043C980.426 92.3043 1001.1 71.744 1001.1 46.4816C1001.1 21.2192 980.426 0.658917 955.026 0.658917Z" fill="black"></path> <path d="M959.422 143.892C942.619 143.892 928.948 130.295 928.948 113.583C928.948 96.8716 942.619 83.2745 959.422 83.2745C976.225 83.2745 989.896 96.8716 989.896 113.583C989.896 130.295 976.225 143.892 959.422 143.892ZM959.422 83.6938C942.86 83.6938 929.37 97.0962 929.37 113.583C929.37 130.071 942.845 143.473 959.422 143.473C975.999 143.473 989.474 130.071 989.474 113.583C989.474 97.0962 975.999 83.6938 959.422 83.6938Z" fill="black"></path> <path d="M959.287 153.102C937.291 153.102 919.404 135.311 919.404 113.434C919.404 91.5568 937.291 73.7665 959.287 73.7665C981.284 73.7665 999.171 91.5568 999.171 113.434C999.171 135.311 981.284 153.102 959.287 153.102ZM959.287 74.2023C937.533 74.2023 919.842 91.7973 919.842 113.434C919.842 135.071 937.533 152.666 959.287 152.666C981.042 152.666 998.733 135.071 998.733 113.434C998.733 91.7973 981.042 74.2023 959.287 74.2023Z" fill="black"></path> <path d="M959.422 162.386C932.306 162.386 910.249 140.448 910.249 113.479C910.249 86.509 932.306 64.571 959.422 64.571C986.538 64.571 1008.6 86.509 1008.6 113.479C1008.6 140.448 986.538 162.386 959.422 162.386ZM959.422 64.9903C932.547 64.9903 910.67 86.7337 910.67 113.479C910.67 140.223 932.532 161.967 959.422 161.967C986.313 161.967 1008.17 140.223 1008.17 113.479C1008.17 86.7337 986.313 64.9903 959.422 64.9903Z" fill="black"></path> <path d="M864.704 144.431C829.999 144.431 801.769 116.354 801.769 81.837C801.769 47.3202 829.999 19.2426 864.704 19.2426C899.408 19.2426 927.639 47.3202 927.639 81.837C927.639 116.354 899.408 144.431 864.704 144.431ZM864.704 19.6618C830.24 19.6618 802.19 47.5448 802.19 81.837C802.19 116.129 830.225 144.012 864.704 144.012C899.182 144.012 927.217 116.129 927.217 81.837C927.217 47.5448 899.182 19.6618 864.704 19.6618Z" fill="black"></path> <path d="M864.704 153.521C824.774 153.521 792.283 121.206 792.283 81.4925C792.283 41.7795 824.774 9.46405 864.704 9.46405C904.633 9.46405 937.124 41.7795 937.124 81.4925C937.124 121.206 904.633 153.521 864.704 153.521ZM864.704 9.89832C825.015 9.89832 792.72 42.0191 792.72 81.4925C792.72 120.966 825.015 153.087 864.704 153.087C904.392 153.087 936.687 120.966 936.687 81.4925C936.687 42.0191 904.392 9.89832 864.704 9.89832Z" fill="black"></path> <path d="M864.704 163C819.52 163 782.768 126.447 782.768 81.5075C782.768 36.5683 819.52 0 864.704 0C909.887 0 946.64 36.5533 946.64 81.4925C946.64 126.432 909.887 162.985 864.704 162.985V163ZM864.704 0.434267C819.761 0.434267 783.189 36.8079 783.189 81.5075C783.189 126.207 819.761 162.581 864.704 162.581C909.646 162.581 946.218 126.207 946.218 81.5075C946.218 36.8079 909.646 0.419293 864.704 0.419293V0.434267Z" fill="black"></path> <path d="M730.699 23.4914L730.401 23.788L827.017 119.881L827.315 119.584L730.699 23.4914Z" fill="black"></path> <path d="M724.023 29.6567L723.725 29.9532L820.341 126.046L820.639 125.75L724.023 29.6567Z" fill="black"></path> <path d="M718.074 37.4183L717.776 37.7156L814.527 133.44L814.825 133.143L718.074 37.4183Z" fill="black"></path> <path d="M711.499 44.0918L711.201 44.3891L807.952 140.114L808.249 139.817L711.499 44.0918Z" fill="black"></path> <path d="M814.28 29.8353L714.917 128.66L715.216 128.957L814.578 30.1318L814.28 29.8353Z" fill="black"></path> <path d="M828.865 42.3091L731.501 138.674L731.798 138.971L829.162 42.6063L828.865 42.3091Z" fill="black"></path> <path d="M755.681 0.449219H755.26V162.775H755.681V0.449219Z" fill="black"></path> <path d="M503.896 0.449219H503.475V162.775H503.896V0.449219Z" fill="black"></path> <path d="M513.426 0.449219H513.005V162.775H513.426V0.449219Z" fill="black"></path> <path d="M522.912 0.449219H522.491V162.775H522.912V0.449219Z" fill="black"></path> <path d="M532.443 0.449219H532.021V162.775H532.443V0.449219Z" fill="black"></path> <path d="M765.031 0.449219H764.61V162.775H765.031V0.449219Z" fill="black"></path> <path d="M774.366 0.449219H773.944V162.775H774.366V0.449219Z" fill="black"></path> <path d="M1008.6 0.449219H1008.17V162.775H1008.6V0.449219Z" fill="black"></path> <path d="M783.716 0.449219H783.294V162.775H783.716V0.449219Z" fill="black"></path> <path d="M1552.04 0.239624H-39.9648V0.658917H1552.04V0.239624Z" fill="black"></path> <path d="M1552.04 9.479H-39.9648V9.8983H1552.04V9.479Z" fill="black"></path> <path d="M1552.04 19.2426H-39.9648V19.6618H1552.04V19.2426Z" fill="black"></path> <path d="M1552.04 28.5269H-39.9648V28.9461H1552.04V28.5269Z" fill="black"></path> <path d="M1552.04 134.323H-39.9648V134.743H1552.04V134.323Z" fill="black"></path> <path d="M1552.04 143.907H-39.9648V144.327H1552.04V143.907Z" fill="black"></path> <path d="M1552.04 153.102H-39.9648V153.521H1552.04V153.102Z" fill="black"></path> <path d="M1552.04 162.326H-39.9648V162.745H1552.04V162.326Z" fill="black"></path> <g clip-path="url(#clip0_176_358)"> <path d="M524.346 31.5797H508.844C508.294 37.6116 507.839 41.5441 507.462 43.4085C507.305 44.8185 506.692 46.1345 505.687 47.1529H503.535V57.2426H508.687V52.4641H521.771V57.2426H526.907V47.1529H524.331V31.5797H524.346ZM511.546 47.1999C512.284 46.1502 512.771 44.9438 512.991 43.6905C513.415 41.3404 513.682 38.9746 513.807 36.5776H518.755L518.802 47.1999H511.546Z" fill="#EBEBEB"></path> <path d="M547.922 32.4727C546.226 31.4857 544.262 30.9687 542.283 31C541.09 31 539.88 31.1723 538.749 31.5484C537.681 31.9087 536.676 32.4257 535.781 33.1151C534.901 33.7731 534.116 34.5721 533.472 35.4652C532.781 36.4052 532.247 37.4706 531.901 38.5829C531.556 39.7266 531.383 40.933 531.383 42.1237C531.351 43.5651 531.618 45.0065 532.152 46.3382C532.687 47.6699 533.488 48.892 534.508 49.926C535.514 50.96 536.723 51.7591 538.058 52.2917C539.393 52.8244 540.823 53.0908 542.268 53.0438C544.561 53.0751 546.822 52.3857 548.692 51.0384C550.561 49.7066 551.943 47.7952 552.65 45.6175H546.681C546.241 46.3539 545.613 46.9649 544.859 47.3722C544.058 47.8109 543.163 48.0303 542.268 48.0146C541.027 48.0616 539.802 47.6542 538.844 46.8709C537.901 46.0249 537.304 44.8655 537.147 43.6121H552.964C553.042 43.0638 553.089 42.5154 553.089 41.9514C553.105 40.04 552.65 38.1442 551.739 36.4522C550.875 34.7915 549.54 33.3971 547.922 32.4571V32.4727ZM537.32 39.7423C537.571 38.6143 538.2 37.5802 539.095 36.8439C539.99 36.1545 541.09 35.7942 542.22 35.8098C543.006 35.8098 543.775 35.9508 544.498 36.2642C545.173 36.5775 545.786 37.0319 546.273 37.6116C546.775 38.2383 547.152 38.9746 547.388 39.758H537.336L537.32 39.7423Z" fill="#EBEBEB"></path> <path d="M561.037 44.3485C561.006 45.2102 560.676 46.0249 560.111 46.6829C559.859 46.9492 559.561 47.1529 559.231 47.2783C558.901 47.4193 558.54 47.4819 558.179 47.4663H556.781V52.5738H557.707C559.938 52.7461 562.152 52.0411 563.88 50.5997C565.467 48.7353 566.362 46.3696 566.409 43.9098L567.116 36.4679H571.906V52.4484H577.451V31.5797H562.498L561.053 44.3328L561.037 44.3485Z" fill="#EBEBEB"></path> <path d="M599.11 31.7364C597.728 31.2037 596.252 30.953 594.775 31C593.283 30.953 591.807 31.2037 590.409 31.7364C589.011 32.2691 587.754 33.0838 586.686 34.1178C585.634 35.1205 584.802 36.3425 584.252 37.6899C583.702 39.0373 583.419 40.4787 583.466 41.9357C583.451 43.9098 583.953 45.8525 584.927 47.5759C585.885 49.2523 587.283 50.6154 588.98 51.5241C590.754 52.4954 592.765 52.9968 594.791 52.9654C596.267 53.0124 597.744 52.7618 599.126 52.2134C600.508 51.6807 601.765 50.866 602.833 49.832C604.89 47.7326 606.053 44.8968 606.053 41.9514C606.053 39.006 604.89 36.1859 602.833 34.0708C601.765 33.0524 600.508 32.2534 599.126 31.7207L599.11 31.7364ZM598.78 46.0875V46.1345C598.246 46.6516 597.618 47.0589 596.927 47.3252C596.236 47.5916 595.498 47.7169 594.76 47.6856C593.974 47.6856 593.205 47.5446 592.482 47.2469C591.822 46.9806 591.226 46.5889 590.707 46.0875C590.205 45.5705 589.812 44.9595 589.561 44.2701C589.294 43.5181 589.152 42.7348 589.152 41.9357C589.121 41.1837 589.247 40.4317 589.514 39.7267C589.781 39.0216 590.189 38.3793 590.707 37.8309C591.791 36.7969 593.22 36.2172 594.728 36.2172C596.236 36.2172 597.665 36.7969 598.749 37.8309C599.754 38.9746 600.304 40.4317 600.304 41.9514C600.304 43.4711 599.754 44.9282 598.749 46.0719L598.78 46.0875Z" fill="#EBEBEB"></path> <path d="M627.1 41.356C627.838 40.886 628.45 40.228 628.874 39.4446C629.298 38.6456 629.518 37.7683 629.518 36.8596C629.534 36.1389 629.393 35.4182 629.094 34.7602C628.796 34.1021 628.34 33.5224 627.791 33.0524C626.566 32.0341 624.995 31.5014 623.408 31.564H612.084V52.4484H623.518C624.382 52.4641 625.246 52.3231 626.047 52.0097C626.848 51.6964 627.586 51.2264 628.215 50.631C628.827 50.067 629.314 49.3777 629.628 48.61C629.958 47.8423 630.115 47.0119 630.084 46.1815C630.1 45.1475 629.832 44.1448 629.283 43.2674C628.764 42.4214 628.011 41.7634 627.1 41.3404V41.356ZM617.613 35.7942H621.838C622.215 35.7942 622.592 35.8725 622.937 36.0449C623.251 36.2015 623.518 36.4365 623.691 36.7342C623.88 37.0632 623.99 37.4392 623.974 37.8153C623.974 38.0816 623.927 38.3479 623.817 38.5986C623.707 38.8493 623.55 39.0686 623.361 39.241C623.157 39.4447 622.906 39.6013 622.639 39.6953C622.372 39.7893 622.073 39.8363 621.791 39.8207H617.566L617.613 35.8099V35.7942ZM624.241 46.7142C624.131 46.9806 623.974 47.2156 623.754 47.4036C623.299 47.7953 622.702 47.9989 622.089 47.9676H617.597V43.7531H622.089C622.702 43.7218 623.283 43.9411 623.754 44.3328C623.958 44.5365 624.131 44.7715 624.241 45.0535C624.351 45.3199 624.398 45.6175 624.382 45.8995C624.382 46.1815 624.351 46.4636 624.241 46.7299V46.7142Z" fill="#EBEBEB"></path> <path d="M650.534 31.7363C649.152 31.2037 647.675 30.953 646.199 31.0157C644.707 30.9687 643.23 31.2193 641.832 31.7677C640.434 32.3004 639.178 33.1151 638.094 34.1491C637.057 35.1675 636.225 36.3738 635.675 37.7212C635.125 39.0686 634.858 40.51 634.874 41.9514C634.858 43.9254 635.345 45.8682 636.319 47.5916C637.277 49.2523 638.691 50.6153 640.372 51.5397C642.146 52.5111 644.157 53.0124 646.183 52.9811C647.659 53.0281 649.152 52.7774 650.534 52.2447C651.916 51.712 653.172 50.8973 654.24 49.8633C656.314 47.7639 657.476 44.9281 657.476 41.9827C657.476 39.0373 656.314 36.2015 654.24 34.1021C653.172 33.0837 651.916 32.2847 650.534 31.752V31.7363ZM650.204 46.1032V46.1502C649.67 46.6672 649.042 47.0745 648.35 47.3566C647.659 47.6229 646.921 47.7482 646.183 47.7169C645.413 47.7169 644.644 47.5759 643.921 47.2782C643.262 47.0275 642.649 46.6202 642.146 46.1188C641.644 45.6018 641.251 44.9908 641 44.3014C640.733 43.5494 640.591 42.7661 640.591 41.967C640.56 41.215 640.686 40.463 640.953 39.758C641.22 39.0529 641.628 38.4106 642.146 37.8622C643.23 36.8282 644.659 36.2642 646.152 36.2642C647.644 36.2642 649.089 36.8439 650.157 37.8622C651.162 39.0059 651.712 40.463 651.712 41.9827C651.712 43.5024 651.162 44.9595 650.157 46.1032H650.204Z" fill="#EBEBEB"></path> <path d="M678.633 32.4727C677.251 31.705 675.727 31.2193 674.141 31.0627C672.57 30.906 670.968 31.0627 669.46 31.5483C668.377 31.893 667.371 32.4257 666.476 33.1151C665.596 33.7731 664.811 34.5721 664.167 35.4651C663.476 36.4052 662.942 37.4705 662.596 38.5829C662.251 39.7266 662.078 40.933 662.078 42.1237C662.047 43.5651 662.314 45.0065 662.848 46.3382C663.382 47.6856 664.183 48.8919 665.204 49.926C666.209 50.96 667.418 51.759 668.753 52.2917C670.089 52.8244 671.518 53.0908 672.963 53.0437C675.272 53.0751 677.534 52.3701 679.403 51.0227C681.256 49.691 682.654 47.7952 683.361 45.6175H677.376C676.937 46.3539 676.308 46.9649 675.554 47.3722C674.753 47.8109 673.858 48.0302 672.947 48.0146C671.706 48.0616 670.481 47.6542 669.523 46.8709C668.596 46.0092 668 44.8655 667.827 43.6121H683.643C683.722 43.0637 683.753 42.5154 683.753 41.9514C683.769 40.04 683.314 38.1442 682.418 36.4522C681.554 34.7915 680.219 33.3971 678.602 32.457L678.633 32.4727ZM668.031 39.7423C668.282 38.6143 668.911 37.5802 669.806 36.8439C670.701 36.1545 671.801 35.7942 672.931 35.8098C673.717 35.8098 674.486 35.9508 675.209 36.2642C675.884 36.5775 676.497 37.0319 676.984 37.6116C677.502 38.2382 677.879 38.9746 678.099 39.758H668.047L668.031 39.7423Z" fill="#EBEBEB"></path> <path d="M700.968 52.4641H706.591V36.6716H714.271V52.4641H719.894V31.5797H700.968V52.4641Z" fill="#EBEBEB"></path> <path d="M746.533 34.2274C745.512 33.1777 744.302 32.363 742.952 31.799C741.601 31.235 740.156 30.9686 738.695 31C736.229 30.953 733.842 31.8303 731.988 33.4754L730.999 31.5797H727.261V59.9843H732.931V51.3203C734.627 52.4954 736.638 53.1064 738.695 53.0751C740.14 53.1221 741.585 52.8557 742.936 52.323C744.287 51.7904 745.512 50.9757 746.533 49.9573C747.569 48.9233 748.37 47.6855 748.904 46.3225C749.439 44.9595 749.706 43.5024 749.658 42.0454C749.69 40.604 749.423 39.1626 748.889 37.8152C748.355 36.4678 747.538 35.2615 746.517 34.2274H746.533ZM743.564 44.2388C743.282 44.9438 742.857 45.5861 742.308 46.1345C741.208 47.1842 739.748 47.7639 738.224 47.7639C736.7 47.7639 735.24 47.1842 734.14 46.1345C733.622 45.5861 733.214 44.9438 732.947 44.2388C732.68 43.5337 732.554 42.7817 732.585 42.0297C732.57 40.9956 732.805 39.9929 733.292 39.0842C733.763 38.2226 734.47 37.5175 735.334 37.0318C736.229 36.5462 737.25 36.2798 738.271 36.2955C739.292 36.2955 740.297 36.5305 741.193 37.0318C742.041 37.5175 742.747 38.2226 743.234 39.0842C743.721 39.9773 743.988 40.9956 743.973 42.014C743.988 42.7817 743.863 43.5337 743.564 44.2388Z" fill="#EBEBEB"></path> <path d="M769.967 31.7207C768.569 31.188 767.077 30.953 765.585 31C764.093 30.953 762.6 31.2037 761.218 31.7364C759.82 32.2691 758.548 33.0837 757.48 34.1178C756.459 35.1361 755.642 36.3582 755.108 37.7056C754.574 39.053 754.307 40.4943 754.354 41.9357C754.339 43.9098 754.841 45.8525 755.815 47.5759C756.773 49.2366 758.171 50.6154 759.852 51.5241C761.642 52.4954 763.637 52.9968 765.679 52.9654C767.155 53.0124 768.632 52.7618 770.03 52.2134C771.412 51.6807 772.668 50.866 773.736 49.832C775.794 47.7326 776.956 44.8968 776.956 41.9514C776.956 39.0059 775.794 36.1859 773.736 34.0708C772.653 33.0367 771.38 32.2377 769.983 31.705L769.967 31.7207ZM769.606 46.0875V46.1345C769.072 46.6515 768.443 47.0589 767.752 47.3252C767.061 47.5916 766.323 47.7169 765.585 47.6856C764.799 47.6856 764.03 47.5446 763.307 47.2469C762.632 46.9962 762.035 46.5889 761.532 46.0875C761.03 45.5705 760.637 44.9595 760.401 44.2858C760.134 43.5338 759.993 42.7504 759.993 41.9514C759.962 41.1994 760.087 40.4473 760.354 39.7423C760.621 39.0373 761.03 38.3949 761.548 37.8466C762.632 36.8125 764.061 36.2329 765.569 36.2329C767.077 36.2329 768.506 36.8125 769.59 37.8466C770.595 38.9903 771.145 40.4473 771.145 41.9671C771.145 43.4868 770.595 44.9438 769.59 46.0875H769.606Z" fill="#EBEBEB"></path> <path d="M795.632 46.8709C794.595 47.5759 793.338 47.9049 792.082 47.7639C790.825 47.6229 789.663 47.0432 788.815 46.1188C787.778 45.0065 787.213 43.5494 787.244 42.0297C787.228 41.2777 787.354 40.5413 787.621 39.8363C787.888 39.1313 788.297 38.5046 788.815 37.9562C789.302 37.4392 789.899 37.0319 790.543 36.7655C791.202 36.4992 791.909 36.3738 792.616 36.3895C793.7 36.3738 794.768 36.6715 795.663 37.2669C796.558 37.8466 797.249 38.6769 797.689 39.6483H803.312C802.888 37.1885 801.584 34.9638 799.637 33.3971C797.658 31.8303 795.192 31 792.663 31.047C791.202 31.0156 789.742 31.2663 788.375 31.799C787.009 32.3317 785.768 33.1464 784.715 34.1648C783.679 35.1831 782.878 36.4052 782.344 37.7525C781.81 39.0999 781.543 40.5413 781.59 41.9827C781.558 43.9568 782.061 45.8995 783.035 47.6229C783.977 49.2993 785.359 50.678 787.024 51.618C788.736 52.5894 790.684 53.0907 792.663 53.0751C795.223 53.1377 797.721 52.276 799.7 50.6623C801.679 49.0486 803.014 46.7769 803.453 44.2701H797.736C797.312 45.3198 796.59 46.2285 795.647 46.8709H795.632Z" fill="#EBEBEB"></path> <path d="M806.752 36.6402H813.569V52.4641H819.113V36.6402H825.945V31.5797H806.752V36.6402Z" fill="#EBEBEB"></path> <path d="M846.977 31.799C845.626 31.2507 844.181 30.9843 842.736 31.0157C840.27 30.9687 837.867 31.846 836.013 33.4911L835.055 31.5953H831.286V60H836.956V51.336C838.652 52.5267 840.663 53.1534 842.736 53.1378C844.181 53.1848 845.626 52.9184 846.977 52.3857C848.327 51.853 849.552 51.0383 850.558 50.02C852.568 47.8736 853.699 45.0535 853.699 42.1237C853.699 39.1939 852.584 36.3582 850.558 34.2274C849.537 33.1934 848.327 32.3787 846.977 31.8304V31.799ZM847.589 44.2544C847.306 44.9595 846.882 45.6018 846.333 46.1345C845.799 46.6515 845.155 47.0589 844.448 47.3409C843.741 47.6072 843.003 47.7326 842.249 47.7012C841.495 47.7326 840.757 47.6072 840.05 47.3409C839.343 47.0745 838.715 46.6672 838.181 46.1345C837.663 45.5862 837.254 44.9438 836.987 44.2388C836.72 43.5338 836.595 42.7817 836.626 42.0297C836.61 41.0113 836.846 39.993 837.333 39.0999C837.804 38.2382 838.511 37.5332 839.375 37.0475C840.27 36.5619 841.291 36.2955 842.312 36.3112C843.333 36.3112 844.338 36.5462 845.233 37.0475C846.097 37.5176 846.804 38.2382 847.275 39.0999C847.762 39.993 848.029 41.0113 848.013 42.0297C848.029 42.7974 847.903 43.5494 847.605 44.2544H847.589Z" fill="#EBEBEB"></path> <path d="M876.144 33.5537C874.259 31.8617 871.809 30.953 869.28 31.0157C867.788 30.953 866.312 31.2037 864.929 31.7363C863.547 32.269 862.275 33.0681 861.207 34.1021C860.139 35.1361 859.291 36.3582 858.71 37.7369C858.129 39.0999 857.83 40.5727 857.83 42.0454C857.83 43.5181 858.129 44.9908 858.71 46.3539C859.291 47.7169 860.139 48.9546 861.207 49.9886C862.275 51.0227 863.547 51.8217 864.929 52.3544C866.312 52.8871 867.804 53.1221 869.28 53.0751C871.778 53.1221 874.196 52.2291 876.065 50.584L876.521 52.4484H880.982V31.5483H876.772L876.144 33.5537ZM875.374 43.1421C875.17 44.2544 874.636 45.2728 873.867 46.0875L873.835 46.0405C873.285 46.5575 872.641 46.9649 871.95 47.2312C871.244 47.4976 870.49 47.6229 869.736 47.5916C868.982 47.6072 868.228 47.4819 867.521 47.1999C866.814 46.9179 866.186 46.4949 865.652 45.9622C865.118 45.4295 864.71 44.7871 864.427 44.0821C864.16 43.3771 864.034 42.6251 864.066 41.873C864.066 40.886 864.333 39.9146 864.82 39.0529C865.306 38.2069 866.013 37.5175 866.861 37.0162C867.757 36.4992 868.762 36.2485 869.783 36.2485C870.914 36.2798 872.013 36.6245 872.94 37.2669C873.867 37.9092 874.605 38.8023 875.029 39.8363C875.469 40.8703 875.579 42.0297 875.374 43.1264V43.1421Z" fill="#EBEBEB"></path> <path d="M901.605 39.3193H894.003V31.5797H888.348V52.4641H894.003V44.4582H901.605V52.4641H907.259V31.5797H901.605V39.3193Z" fill="#EBEBEB"></path> <path d="M927.442 46.8709C926.562 47.4976 925.494 47.8109 924.426 47.7952C923.703 47.7952 922.997 47.6542 922.353 47.3722C921.709 47.0902 921.112 46.6515 920.641 46.1188C919.635 44.9908 919.086 43.5338 919.086 42.0297C919.086 40.5256 919.635 39.0686 920.641 37.9406C921.128 37.4235 921.724 37.0162 922.384 36.7499C923.044 36.4835 923.75 36.3582 924.457 36.3738C925.572 36.3425 926.656 36.6402 927.583 37.2512C928.478 37.8309 929.185 38.6612 929.625 39.6326H935.232C934.808 37.1729 933.504 34.9481 931.557 33.3814C929.578 31.799 927.112 30.9687 924.583 31.0313C923.122 31 921.662 31.2507 920.295 31.7833C918.929 32.316 917.688 33.1307 916.635 34.1491C915.599 35.1675 914.798 36.3895 914.248 37.7212C913.714 39.0686 913.447 40.51 913.494 41.9514C913.463 43.9254 913.965 45.8682 914.939 47.5916C915.881 49.2679 917.264 50.6467 918.929 51.5867C920.641 52.5581 922.588 53.0594 924.567 53.0437C927.127 53.1064 929.641 52.2447 931.635 50.6153C933.599 49.0016 934.918 46.7299 935.342 44.2231H929.656C929.185 45.2885 928.415 46.1972 927.442 46.8239V46.8709Z" fill="#EBEBEB"></path> <path d="M938.499 36.6402H945.331V52.4641H950.86V36.6402H957.693V31.5797H938.499V36.6402Z" fill="#EBEBEB"></path> <path d="M978.08 41.356C978.818 40.8704 979.431 40.228 979.855 39.4446C980.279 38.6456 980.499 37.7683 980.499 36.8596C980.515 36.1389 980.373 35.4182 980.075 34.7602C979.776 34.1021 979.337 33.5224 978.787 33.0524C977.546 32.0341 975.975 31.5014 974.373 31.564H963.049V52.4484H974.436C975.3 52.4641 976.164 52.3231 976.965 52.0097C977.766 51.6964 978.504 51.2264 979.132 50.631C979.745 50.067 980.232 49.3777 980.562 48.61C980.892 47.8423 981.049 47.0119 981.033 46.1815C981.049 45.1475 980.782 44.1448 980.232 43.2674C979.714 42.4371 978.975 41.7634 978.096 41.3404L978.08 41.356ZM972.85 35.7942C973.242 35.7942 973.619 35.8725 973.965 36.0449C974.279 36.2015 974.546 36.4365 974.719 36.7342C974.907 37.0632 975.002 37.4392 974.986 37.8153C974.986 38.0816 974.939 38.3479 974.845 38.583C974.75 38.8336 974.593 39.053 974.389 39.2253C974.185 39.429 973.934 39.5857 973.667 39.6797C973.4 39.7737 973.117 39.8207 972.818 39.805H968.609V35.7942H972.85ZM975.221 46.7142C975.112 46.9806 974.954 47.2156 974.735 47.4036C974.515 47.6073 974.248 47.7483 973.965 47.8579C973.682 47.9519 973.384 47.9989 973.085 47.9676H968.593V43.7531H973.085C973.698 43.7218 974.295 43.9255 974.75 44.3328C974.954 44.5365 975.127 44.7715 975.237 45.0535C975.347 45.3199 975.394 45.6175 975.379 45.8995C975.379 46.1815 975.347 46.4636 975.237 46.7299L975.221 46.7142Z" fill="#EBEBEB"></path> <path d="M1001.58 31.7207C1000.18 31.188 998.703 30.953 997.211 31C995.719 30.953 994.226 31.2037 992.844 31.7364C991.446 32.2691 990.174 33.0837 989.106 34.1178C988.069 35.1361 987.268 36.3582 986.734 37.6899C986.2 39.0373 985.933 40.4787 985.98 41.92C985.965 43.8941 986.467 45.8369 987.441 47.5602C988.384 49.2366 989.797 50.5997 991.493 51.5084C993.268 52.4797 995.279 52.9811 997.305 52.9498C998.781 52.9968 1000.26 52.7461 1001.64 52.2134C1003.02 51.6807 1004.28 50.866 1005.33 49.832C1007.4 47.7326 1008.55 44.8968 1008.55 41.9514C1008.55 39.0059 1007.39 36.1702 1005.33 34.0708C1004.25 33.0367 1002.98 32.2377 1001.59 31.705L1001.58 31.7207ZM1001.22 46.0875V46.1345C1000.68 46.6515 1000.05 47.0589 999.362 47.3252C998.671 47.5916 997.933 47.7169 997.195 47.6856C996.41 47.6856 995.64 47.5446 994.918 47.2469C994.258 46.9962 993.645 46.5889 993.143 46.0875C992.64 45.5705 992.247 44.9595 991.996 44.2701C991.729 43.5181 991.588 42.7347 991.588 41.9357C991.556 41.1837 991.682 40.4317 991.949 39.7266C992.216 39.0216 992.624 38.3793 993.143 37.8309C994.226 36.7969 995.656 36.2172 997.164 36.2172C998.671 36.2172 1000.1 36.7969 1001.18 37.8309C1002.19 38.9746 1002.74 40.4317 1002.74 41.9514C1002.74 43.4711 1002.19 44.9282 1001.18 46.0719L1001.22 46.0875Z" fill="#EBEBEB"></path> </g> <defs> <clipPath id="clip0_176_358"> <rect width="505" height="29" fill="white" transform="translate(503.535 31)"></rect> </clipPath> </defs> </svg> 