<?xml version="1.0" encoding="UTF-8"?> <svg xmlns="http://www.w3.org/2000/svg" width="136" height="123" viewBox="0 0 136 123" fill="none"><path d="M82.3495 23.9592C88.7657 25.0762 94.064 27.6018 98.3414 31.4873C102.619 35.3729 105.633 40.2783 107.334 46.2523C109.035 52.1777 109.278 58.8317 107.966 66.117C106.653 73.4024 104.174 79.6678 100.529 84.7189C96.8832 89.7215 92.3627 93.3642 87.0159 95.5498C81.669 97.7354 75.7875 98.2697 69.4199 97.1526C63.0523 96.0355 57.7055 93.5099 53.428 89.6244C49.1506 85.7389 46.1369 80.7848 44.4357 74.8109C42.7344 68.8369 42.4913 62.1829 43.8037 54.8004C45.1161 47.418 47.5951 41.3468 51.2407 36.3442C54.8863 31.3416 59.4067 27.7475 64.7536 25.5619C70.1004 23.3763 75.9819 22.8421 82.3495 23.9592ZM80.6483 33.7215C75.7875 32.8473 71.5587 33.4301 68.0103 35.3243C64.462 37.2185 61.5455 40.1326 59.3096 43.921C57.0736 47.7094 55.5668 51.9834 54.7404 56.6946C53.9141 61.4058 53.8655 65.9713 54.6432 70.3425C55.421 74.7137 57.1708 78.405 59.8442 81.4648C62.5177 84.5247 66.3091 86.516 71.1698 87.3417C76.0306 88.1673 80.2594 87.6331 83.8078 85.6903C87.4047 83.699 90.3212 80.8334 92.5085 76.9965C94.7445 73.1595 96.2513 68.8854 97.1262 64.1743C98.0012 59.4631 98.0011 54.8976 97.1748 50.5749C96.3971 46.2523 94.6472 42.5611 91.9252 39.5498C89.2032 36.5385 85.4604 34.5472 80.5997 33.7215H80.6483Z" fill="#828282"></path><path d="M107.971 97.5176L118.837 99.4321L136.005 2.14362L125.139 0.229118L107.971 97.5176Z" fill="#828282"></path><path d="M60.6229 83.2623C54.2067 84.3794 48.3738 83.8451 43.027 81.6595C37.6802 79.4739 33.1596 75.8798 29.5141 70.8772C25.8685 65.8746 23.3895 59.7549 22.0771 52.421C20.7647 45.0871 21.0078 38.3846 22.709 32.4106C24.4589 26.4366 27.424 21.5311 31.7014 17.5971C35.9789 13.663 41.3257 11.186 47.6933 10.0689C54.0609 8.95178 59.9424 9.48603 65.2892 11.6716C70.6361 13.8572 75.1566 17.4999 78.8022 22.5025C82.4477 27.5537 84.9267 33.722 86.2391 41.1044C87.5515 48.4869 87.3085 55.0437 85.6072 60.9691C83.8573 66.8946 80.8923 71.8486 76.6148 75.7341C72.3373 79.6196 66.9905 82.1452 60.6229 83.2623ZM58.873 73.4999C63.7338 72.6257 67.5252 70.6829 70.1986 67.6717C72.872 64.6604 74.6219 60.9691 75.4482 56.6465C76.226 52.3239 76.2259 47.807 75.3996 43.0472C74.5733 38.2874 73.0179 34.0619 70.7819 30.225C68.546 26.388 65.6781 23.5225 62.0812 21.5311C58.4842 19.5884 54.304 19.0056 49.4432 19.8798C44.5824 20.754 40.8397 22.6968 38.1176 25.7566C35.4442 28.8165 33.6943 32.5563 32.9166 36.8789C32.1389 41.2501 32.1389 45.7671 33.0138 50.5268C33.8888 55.2866 35.3956 59.5121 37.5829 63.3005C39.8189 67.0888 42.6867 69.9544 46.2837 71.8972C49.8807 73.8399 54.0609 74.3742 58.9217 73.4999H58.873Z" fill="#828282"></path><path d="M11.3643 22.8824L0.498077 24.7969L17.6663 122.085L28.5326 120.171L11.3643 22.8824Z" fill="#828282"></path></svg> 